:SAMPLES-PER-SECOND 30
:FULLY-SPECIFIED
:DEGREES
184
root  69.7447 39.7817 -0.797077 1.6655 -57.792 2.02789
RightUpLeg  -16.1136 -10.4675 -5.02563
RightLeg  25.4257 -1.10507 -0.795801
RightFoot  -10.2655 -0.106814 3.71358
RightToes  0.00048216 0.542163 -0.142577
Spine  8.04294 2.05012 4.54298
Spine1  4.31173 3.9789 -7.23953
HEad  -4.0384 0.187778 2.52997
LeftShoulder1  7.98691 -12.1052 -44.568
LeftArm  -12.8998 23.3127 -23.2826
LeftForeArm  30.5096 -29.3932 -4.70297
LeftHand  -0.25398 0.0180481 5.50724
RightShoulder  4.67659 8.23882 33.8785
RightArm  12.506 -20.2147 43.1281
RightForeArm  148.525 72.858 145.418
RightHand  -1.99105 5.63248 -21.1214
LeftUpLeg  -3.61318 8.48708 3.52196
LeftLeg  12.1101 9.3713 -0.322641
LeftFoot  -9.63908 0.126255 -4.57171
LeftToes  1.06246e-005 4.65856e-005 -8.18502e-006
185
root  70.2373 39.9055 -0.645285 1.35918 -61.9051 1.84648
RightUpLeg  -13.6927 -14.5413 -4.23986
RightLeg  25.6748 -6.47151 -3.59744
RightFoot  -11.1529 -0.0777639 2.03186
RightToes  0.00048216 0.542163 -0.142577
Spine  7.19315 1.8418 4.37865
Spine1  5.05686 3.62509 -6.55239
HEad  -4.81152 -1.73582 2.56328
LeftShoulder1  7.93542 -11.9579 -44.7083
LeftArm  -13.616 23.7306 -23.0102
LeftForeArm  29.0083 -28.7925 -4.64819
LeftHand  -0.25398 0.0180481 5.50724
RightShoulder  4.71454 8.29672 34.0037
RightArm  13.4024 -20.373 42.8499
RightForeArm  150.759 72.6374 146.227
RightHand  -1.77612 4.90721 -20.1871
LeftUpLeg  -2.09884 8.66984 3.49004
LeftLeg  10.3263 13.3768 -1.15488
LeftFoot  -9.20733 0.13366 -4.20672
LeftToes  1.06246e-005 4.65856e-005 -8.18502e-006
186
root  70.6024 39.9657 -0.506235 0.933043 -65.7638 2.00613
RightUpLeg  -10.954 -18.0009 -4.14822
RightLeg  25.35 -9.4365 -5.06134
RightFoot  -10.9425 -0.0788525 1.11364
RightToes  0.00048216 0.542163 -0.142577
Spine  5.71879 1.66905 4.17156
Spine1  6.27873 3.29252 -5.81444
HEad  -5.65776 -3.19275 2.3742
LeftShoulder1  7.8629 -11.7271 -44.9808
LeftArm  -13.5149 23.6315 -22.8208
LeftForeArm  27.7124 -27.6839 -4.46993
LeftHand  -0.25398 0.0180481 5.50724
RightShoulder  4.78215 8.46129 34.0195
RightArm  14.3538 -20.4109 42.0931
RightForeArm  152.527 72.5362 146.708
RightHand  -1.65335 4.6104 -19.3781
LeftUpLeg  -1.09009 8.17081 3.08952
LeftLeg  9.17133 17.6883 -1.48415
LeftFoot  -9.15268 0.127111 -3.77783
LeftToes  1.06246e-005 4.65856e-005 -8.18502e-006
187
root  70.8753 39.954 -0.425807 0.446607 -69.4587 2.65771
RightUpLeg  -8.15797 -20.0095 -4.49398
RightLeg  24.0769 -8.94081 -4.57288
RightFoot  -10.2373 -0.0935646 2.51067
RightToes  0.00048216 0.542163 -0.142577
Spine  4.01484 1.70696 3.92627
Spine1  7.2384 3.17491 -5.26636
HEad  -6.02683 -4.44482 2.40919
LeftShoulder1  7.83641 -11.5999 -45.215
LeftArm  -12.7894 23.3022 -22.8247
LeftForeArm  26.9665 -26.3629 -4.22032
LeftHand  -0.25398 0.0180481 5.50724
RightShoulder  4.75003 8.40053 33.9541
RightArm  15.1867 -20.4672 41.2718
RightForeArm  152.842 72.5823 146.669
RightHand  -1.70822 4.91557 -19.4248
LeftUpLeg  -1.10998 7.65702 2.42948
LeftLeg  9.16949 21.4173 -1.199
LeftFoot  -9.29326 0.119478 -3.56975
LeftToes  1.06246e-005 4.65856e-005 -8.18502e-006
188
root  71.1041 39.9137 -0.441742 -0.470918 -73.0241 4.11657
RightUpLeg  -5.53546 -20.067 -4.80376
RightLeg  21.2908 -6.78075 -3.16284
RightFoot  -10.4635 -0.103797 4.38751
RightToes  0.00048216 0.542163 -0.142577
Spine  2.45029 1.968 3.50112
Spine1  7.67147 3.29723 -4.87396
HEad  -6.15251 -5.4815 2.55979
LeftShoulder1  7.78858 -11.5547 -45.0677
LeftArm  -12.0658 22.8722 -23.3057
LeftForeArm  26.5819 -25.0096 -3.95044
LeftHand  -0.25398 0.0180481 5.50724
RightShoulder  4.68094 8.21052 34.011
RightArm  15.6292 -20.6245 40.4715
RightForeArm  151.99 72.7019 146.297
RightHand  -1.84499 5.31422 -20.1865
LeftUpLeg  -1.70952 7.70714 1.84919
LeftLeg  9.58497 24.4716 -0.972205
LeftFoot  -9.63753 0.110977 -3.5701
LeftToes  1.06246e-005 4.65856e-005 -8.18502e-006
189
root  71.3138 39.9103 -0.528163 -2.45422 -76.2268 6.58723
RightUpLeg  -3.16658 -18.1861 -5.11537
RightLeg  17.0271 -5.87148 -1.5643
RightFoot  -11.5664 -0.0726453 4.12783
RightToes  0.00048216 0.542163 -0.142577
Spine  1.40532 2.05413 2.98834
Spine1  7.83307 3.27584 -4.46407
HEad  -6.49797 -5.85065 2.52622
LeftShoulder1  7.63325 -11.3881 -44.6446
LeftArm  -11.6849 22.369 -24.0362
LeftForeArm  26.3335 -23.9559 -3.74364
LeftHand  -0.25398 0.0180481 5.50724
RightShoulder  4.70464 8.20295 34.2363
RightArm  15.8311 -20.5229 39.7011
RightForeArm  151.434 72.9246 145.759
RightHand  -1.89956 5.46488 -20.4868
LeftUpLeg  -1.97508 7.86951 1.34404
LeftLeg  9.2753 27.4609 -1.18131
LeftFoot  -9.85125 0.100087 -3.16465
LeftToes  1.06246e-005 4.65856e-005 -8.18502e-006
190
root  71.5101 39.9599 -0.626142 -5.2909 -78.7393 9.45251
RightUpLeg  -1.07182 -13.1257 -5.81176
RightLeg  12.438 -8.97838 0.635965
RightFoot  -11.9145 -0.0684145 1.96094
RightToes  0.00048216 0.542163 -0.142577
Spine  1.18333 1.66231 2.81707
Spine1  8.06933 2.81933 -4.06686
HEad  -7.49135 -5.45974 2.26973
LeftShoulder1  7.45878 -11.1169 -44.4229
LeftArm  -11.4923 21.7022 -24.5212
LeftForeArm  26.2732 -23.484 -3.65692
LeftHand  -0.25398 0.0180481 5.50724
RightShoulder  4.78813 8.34834 34.4459
RightArm  16.1206 -19.7993 39.0916
RightForeArm  151.658 73.1997 145.228
RightHand  -1.87196 5.56355 -20.0267
LeftUpLeg  -1.6198 7.72607 0.877177
LeftLeg  8.32196 30.0579 -1.49549
LeftFoot  -9.71166 0.0916341 -2.3513
LeftToes  1.06246e-005 4.65856e-005 -8.18502e-006
191
root  71.6895 40.037 -0.70197 -7.52004 -80.6619 11.3743
RightUpLeg  0.382387 -9.95518 -6.32644
RightLeg  8.76491 -10.6077 2.68718
RightFoot  -10.7882 -0.0731882 0.0363413
RightToes  0.00048216 0.542163 -0.142577
Spine  1.47917 1.05608 3.3064
Spine1  8.59943 2.19874 -3.84719
HEad  -9.28839 -4.68535 1.90464
LeftShoulder1  7.42182 -11.0138 -44.5196
LeftArm  -11.4031 20.7789 -24.8317
LeftForeArm  26.5973 -23.4535 -3.63688
LeftHand  -0.25398 0.0180481 5.50724
RightShoulder  4.8362 8.44329 34.5262
RightArm  16.415 -18.7672 38.5636
RightForeArm  151.716 73.3034 145.018
RightHand  -1.83474 5.53445 -19.6944
LeftUpLeg  -1.10855 7.5788 0.599285
LeftLeg  7.5415 31.0659 -1.6185
LeftFoot  -9.78681 0.0841164 -1.86443
LeftToes  1.06246e-005 4.65856e-005 -8.18502e-006
192
root  71.8418 40.115 -0.762053 -8.37422 -82.4407 12.0853
RightUpLeg  0.989126 -9.62337 -6.47052
RightLeg  6.6181 -9.17163 3.9001
RightFoot  -9.16475 -0.0549242 -0.443926
RightToes  0.00048216 0.542163 -0.142577
Spine  1.67313 0.678917 4.1615
Spine1  9.18202 1.80965 -3.69304
HEad  -11.3843 -3.72572 1.76517
LeftShoulder1  7.50217 -11.1533 -44.5773
LeftArm  -11.6272 19.8106 -25.5362
LeftForeArm  27.4741 -23.5497 -3.60798
LeftHand  -0.25398 0.0180481 5.50724
RightShoulder  4.87173 8.5372 34.506
RightArm  16.4485 -18.1652 37.768
RightForeArm  150.721 73.1442 145.188
RightHand  -1.80582 5.1576 -20.0525
LeftUpLeg  -1.04799 7.52485 0.449331
LeftLeg  7.26885 29.6877 -1.62231
LeftFoot  -10.8051 0.0736306 -2.02887
LeftToes  1.06246e-005 4.65856e-005 -8.18502e-006
193
root  71.9699 40.1715 -0.822448 -9.40632 -84.2968 13.3725
RightUpLeg  0.756523 -9.60599 -6.25325
RightLeg  5.50062 -7.35467 4.30056
RightFoot  -8.02995 -0.0476513 -0.230185
RightToes  0.00048216 0.542163 -0.142577
Spine  1.75511 0.612124 4.72963
Spine1  9.21288 1.65284 -3.35477
HEad  -13.1023 -2.59679 1.82108
LeftShoulder1  7.5459 -11.3081 -44.3595
LeftArm  -12.158 19.1927 -26.8125
LeftForeArm  28.8437 -23.852 -3.5941
LeftHand  -0.25398 0.0180481 5.50724
RightShoulder  4.94066 8.73053 34.4311
RightArm  16.3143 -18.1866 36.5909
RightForeArm  149.443 72.9274 145.427
RightHand  -1.8143 4.94932 -20.525
LeftUpLeg  -1.6538 7.02988 0.0102768
LeftLeg  7.31248 26.1343 -1.53147
LeftFoot  -12.3205 0.0550127 -2.28218
LeftToes  1.06246e-005 4.65856e-005 -8.18502e-006
194
root  72.0846 40.1955 -0.875475 -12.6677 -86.066 16.9819
RightUpLeg  0.0207293 -9.31861 -5.89234
RightLeg  5.1127 -6.15629 4.27195
RightFoot  -7.34461 -0.0326609 -0.48216
RightToes  0.00048216 0.542163 -0.142577
Spine  2.11069 0.631692 4.89032
Spine1  8.68307 1.5304 -2.84108
HEad  -14.3585 -1.38317 1.90596
LeftShoulder1  7.51515 -11.3515 -44.0347
LeftArm  -12.6424 18.9351 -28.1508
LeftForeArm  30.3893 -24.7933 -3.70782
LeftHand  -0.25398 0.0180481 5.50724
RightShoulder  4.99571 8.88695 34.3663
RightArm  16.2594 -18.2158 35.3264
RightForeArm  148.796 72.8376 145.505
RightHand  -1.89213 5.30609 -20.6959
LeftUpLeg  -2.60268 5.91437 -0.828511
LeftLeg  7.56234 21.6747 -1.1486
LeftFoot  -12.9136 0.0516279 -1.8595
LeftToes  1.06246e-005 4.65856e-005 -8.18502e-006
195
root  72.174 40.1966 -0.905325 -18.8687 -87.5111 23.2382
RightUpLeg  -0.653317 -9.17022 -5.6019
RightLeg  5.394 -5.19222 4.18187
RightFoot  -6.82339 -0.00113411 -1.14119
RightToes  0.00048216 0.542163 -0.142577
Spine  2.57213 0.596358 5.00122
Spine1  8.47353 1.38255 -2.33404
HEad  -15.6487 -0.537618 1.90287
LeftShoulder1  7.50673 -11.3834 -43.8841
LeftArm  -12.8389 18.6233 -29.0078
LeftForeArm  31.8829 -26.5768 -4.00936
LeftHand  -0.25398 0.0180481 5.50724
RightShoulder  5.00968 8.91574 34.3852
RightArm  16.2002 -17.7495 34.2544
RightForeArm  148.278 72.8131 145.471
RightHand  -1.95604 5.58057 -20.861
LeftUpLeg  -3.29898 4.86545 -1.61371
LeftLeg  7.91419 18.2615 -0.582807
LeftFoot  -11.9821 0.0668149 -0.592992
LeftToes  1.06246e-005 4.65856e-005 -8.18502e-006
196
root  72.2072 40.1963 -0.917858 -30.2957 -88.5467 34.459
RightUpLeg  -0.833128 -9.09938 -5.42672
RightLeg  5.71064 -4.28167 4.13165
RightFoot  -6.50337 0.0138596 -1.41008
RightToes  0.00048216 0.542163 -0.142577
Spine  2.62463 0.558549 5.07185
Spine1  9.00948 1.23798 -1.8258
HEad  -16.7849 0.0313708 1.89562
LeftShoulder1  7.57558 -11.4691 -44.0411
LeftArm  -12.8368 18.1279 -29.3119
LeftForeArm  33.4933 -28.912 -4.43631
LeftHand  -0.25398 0.0180481 5.50724
RightShoulder  5.04182 8.96431 34.4845
RightArm  15.9154 -17.1558 33.367
RightForeArm  147.394 72.7554 145.444
RightHand  -1.919 5.23207 -21.1178
LeftUpLeg  -3.39964 4.54469 -1.90222
LeftLeg  8.03645 17.097 -0.321553
LeftFoot  -10.4819 0.0568279 0.880343
LeftToes  1.06246e-005 4.65856e-005 -8.18502e-006
197
root  72.1741 40.2069 -0.927522 -52.0743 -89.1263 56.0656
RightUpLeg  -0.607512 -8.95034 -5.3367
RightLeg  5.5306 -3.62245 4.06954
RightFoot  -6.34597 -0.000307853 -1.22637
RightToes  0.00048216 0.542163 -0.142577
Spine  2.32544 0.575374 4.83852
Spine1  9.48244 1.08815 -1.21148
HEad  -16.6592 1.1693 2.17643
LeftShoulder1  7.66111 -11.519 -44.4082
LeftArm  -12.758 17.8136 -29.3464
LeftForeArm  35.375 -31.2786 -4.87571
LeftHand  -0.25398 0.0180481 5.50724
RightShoulder  5.09169 9.0574 34.5807
RightArm  15.4466 -17.1109 32.6666
RightForeArm  146.836 72.7023 145.462
RightHand  -1.91472 5.10952 -21.3045
LeftUpLeg  -3.06058 4.80272 -1.702
LeftLeg  7.73578 17.4786 -0.633632
LeftFoot  -9.59515 0.0335705 1.62922
LeftToes  1.06246e-005 4.65856e-005 -8.18502e-006
198
root  72.0969 40.2233 -0.927408 -72.2761 -89.2553 76.2295
RightUpLeg  -0.347497 -8.81425 -5.31449
RightLeg  5.19446 -3.47713 3.99934
RightFoot  -6.18359 0.00221925 -1.29328
RightToes  0.00048216 0.542163 -0.142577
Spine  2.09256 0.579342 4.44571
Spine1  9.24296 0.921553 -0.66632
HEad  -15.3681 2.20361 2.38612
LeftShoulder1  7.67452 -11.4635 -44.6617
LeftArm  -12.6648 17.8539 -29.4645
LeftForeArm  37.1112 -33.2624 -5.25333
LeftHand  -0.25398 0.0180481 5.50724
RightShoulder  5.07286 8.99355 34.6364
RightArm  14.9133 -17.6417 32.3752
RightForeArm  147.211 72.6826 145.563
RightHand  -2.12177 6.10985 -21.5656
LeftUpLeg  -2.54896 4.92794 -1.3733
LeftLeg  7.10574 17.9562 -1.31051
LeftFoot  -9.4291 0.0320487 1.47557
LeftToes  1.06246e-005 4.65856e-005 -8.18502e-006
